Coordinates
version=1
nRows=16
nColumns=36
inDegrees=yes

Units are S.I. units (second, meters, Newtons, ...)
If the header above contains a line with 'inDegrees', this indicates whether rotational values are in degrees (yes) or radians (no).

endheader
time	pelvis_tilt	pelvis_list	pelvis_rotation	pelvis_tx	pelvis_ty	pelvis_tz	hip_flexion_r	hip_adduction_r	hip_rotation_r	knee_angle_r	knee_angle_r_beta	ankle_angle_r	subtalar_angle_r	mtp_angle_r	hip_flexion_l	hip_adduction_l	hip_rotation_l	knee_angle_l	knee_angle_l_beta	ankle_angle_l	subtalar_angle_l	mtp_angle_l	lumbar_extension	lumbar_bending	lumbar_rotation	arm_flex_r	arm_add_r	arm_rot_r	elbow_flex_r	pro_sup_r	arm_flex_l	arm_add_l	arm_rot_l	elbow_flex_l	pro_sup_l
      2.56666670	     -8.89971370	     -3.92030066	     15.38354024	      0.73351136	      1.15325030	      0.07767380	     10.17186774	     -4.47222236	     -6.23483885	      4.26042341	      0.07435842	    -12.14499484	      1.16621047	     -7.49999986	     11.97008890	     -5.59132663	    -11.74868669	      3.93457190	      0.06867123	    -18.82998997	     -0.93339749	     -7.49999986	     -7.91646224	      0.90726319	      4.33907915	     -6.41331090	    -13.07919790	      9.22082599	     12.52521155	     86.34209343	      5.32784232	     -8.74385969	     17.32492041	      5.46522652	     90.11680382
      2.58333330	     -8.85904465	     -3.80490309	     15.18904331	      0.73904273	      1.15184605	      0.08063922	     10.27549935	     -4.63772106	     -6.25978809	      4.11536624	      0.07182669	    -12.27429570	      1.35253349	     -7.49999986	     11.94584408	     -5.62652805	    -12.07770241	      3.78476411	      0.06605660	    -19.33682634	     -0.86350467	     -7.49999986	     -7.43846122	      0.61489865	      4.41577511	     -6.47893065	    -12.96096258	      9.25530245	     12.55720627	     86.47534418	      4.90460638	     -9.00608249	     17.46150035	      5.49846274	     90.25750742
      2.60000000	     -8.98419171	     -3.82558575	     15.09981521	      0.73911576	      1.15529684	      0.07519280	     10.78361822	     -4.80599952	     -6.37175300	      4.32426857	      0.07547272	    -12.65363766	      1.66216980	     -7.49999986	     12.41589349	     -5.63956984	    -12.34521296	      4.02382819	      0.07022905	    -19.20491257	     -0.87521584	     -7.49999986	     -6.86513145	      0.57123076	      4.31309119	     -6.15993256	    -13.03126832	      9.54395094	     12.85312222	     87.13410525	      4.16057649	     -9.39621282	     18.28688035	      6.14214696	     90.92067965
      2.61666670	     -8.76840836	     -3.78945306	     15.02991759	      0.74442376	      1.15297317	      0.07265273	     10.76958743	     -4.98397336	     -6.71047590	      4.40311710	      0.07684889	    -12.85121048	      1.54784987	     -7.49999986	     12.30510046	     -5.65102954	    -12.58342847	      4.14933841	      0.07241962	    -19.14680885	     -1.06584139	     -7.49999986	     -6.52265944	      0.54838848	      4.60078488	     -5.70626593	    -13.18494296	      9.53126821	     13.03191653	     87.16097357	      3.88999670	     -9.44943747	     18.33297779	      6.08979106	     90.95574329
      2.63333330	     -8.92562892	     -3.82020047	     14.91751963	      0.74454924	      1.15354707	      0.07250521	     11.12590929	     -5.10397695	     -6.75174681	      4.19971235	      0.07329881	    -12.88557703	      1.69582020	     -7.49999986	     12.56841733	     -5.64834132	    -12.48700517	      4.17140465	      0.07280475	    -18.81249237	     -1.22718744	     -7.49999986	     -5.83996625	      0.56687571	      4.13624207	     -4.72215262	    -13.43666390	     10.63967122	     13.18587668	     87.09346729	      3.04054841	     -9.80227384	     19.69063342	      6.55679810	     90.46750596
      2.65000000	     -8.85284227	     -3.93497075	     14.91846495	      0.74547219	      1.14656959	      0.07260273	     11.67774086	     -5.06821136	     -6.81514578	      4.66365050	      0.08139606	    -12.59936796	      1.45765428	     -7.49999986	     12.98811190	     -5.86867148	    -11.85373300	      4.53926578	      0.07922513	    -18.29320206	     -1.25007755	     -7.49999986	     -5.57937789	      0.72091425	      4.15457708	     -4.12942074	    -13.80416841	     11.49818103	     13.98736203	     85.50434094	      2.60790019	     -9.92100614	     20.54717843	      6.96697645	     88.44754668
      2.66666670	     -8.79293448	     -3.94511797	     15.02955012	      0.75069195	      1.13961709	      0.06984372	     11.96370668	     -5.10106251	     -6.98973297	      4.67765260	      0.08164044	    -12.48422696	      1.49414533	     -7.49999987	     13.35984849	     -5.90559779	    -11.24009231	      4.53341216	      0.07912297	    -17.85196225	     -1.14040036	     -7.49999987	     -5.48420884	      0.72768331	      3.96723757	     -3.51615803	    -14.23066642	     11.89249610	     15.48085466	     87.85586948	      1.89636457	    -10.33113179	     21.05305221	      8.09444235	     90.12129568
      2.68333330	     -8.84731256	     -4.06337541	     15.18679919	      0.75167293	      1.12272331	      0.06998778	     12.67648984	     -5.05588681	     -7.16790998	      5.00178596	      0.08729763	    -12.27039096	      1.27903613	     -7.49999987	     14.13571765	     -6.02682040	    -10.29876208	      4.94766162	      0.08635299	    -17.13166916	     -1.56585970	     -7.49999987	     -5.18536714	      0.85193367	      3.91834451	     -2.90305235	    -14.46390605	     12.48154389	     16.62981890	     85.86543650	      1.49929340	    -10.46864556	     21.87005279	      8.74071514	     87.84120795
      2.70000000	     -8.64152400	     -4.10874988	     15.35267167	      0.75643559	      1.10805452	      0.06748156	     12.98285364	     -5.00832404	     -7.37290288	      5.30809640	      0.09264376	    -12.36586592	      1.07140727	     -7.49999987	     14.52259852	     -6.13116805	     -9.65345485	      5.44346766	      0.09500643	    -16.66941451	     -1.90393157	     -7.49999987	     -5.33310771	      0.96573297	      3.86348059	     -2.57789727	    -14.84955034	     12.95808879	     18.57532866	     83.27834120	      1.08830628	    -10.75621943	     22.62928116	      9.86625538	     84.98665602
      2.71666670	     -8.90801272	     -4.14865631	     15.53837479	      0.75777461	      1.09506999	      0.06796546	     13.65511499	     -5.10709663	     -7.71702940	      5.35930379	      0.09353750	    -11.62791119	      1.34482666	     -7.49999987	     15.70682363	     -6.15273094	     -8.55844969	      6.42583051	      0.11215190	    -15.74717197	     -2.36353247	     -7.49999987	     -5.11793190	      0.92685470	      3.64977297	     -1.83491662	    -15.21845117	     13.77538567	     20.23663425	     86.44266118	      0.56335388	    -11.30533493	     23.64401270	     11.30591858	     87.70324141
      2.73333330	     -8.92982084	     -4.26752612	     15.74742116	      0.75838182	      1.07408074	      0.06798976	     14.15547486	     -5.04723337	     -8.12820708	      5.63502790	      0.09834979	    -11.08445787	      1.16248322	     -7.49999987	     16.44482808	     -6.33541886	     -7.66460802	      7.25947707	      0.12670178	    -15.19408550	     -2.58052649	     -7.49999987	     -5.20309475	      1.01057121	      3.52880913	     -1.12888585	    -15.41132691	     13.41718158	     21.92104337	     85.92263831	      0.47632163	    -11.64289015	     23.39533968	     12.36840327	     87.08020598
      2.75000000	     -8.96784636	     -4.40506238	     15.95727300	      0.75934705	      1.05345947	      0.06785329	     14.89017211	     -4.99494549	     -8.02101955	      6.56316969	      0.11454892	    -10.56490195	      0.81181096	     -7.49999987	     17.17157565	     -6.49859513	     -6.87249337	      8.24375706	      0.14388070	    -14.83759163	     -2.56074394	     -7.49999987	     -5.37974921	      1.12742010	      3.78954717	     -1.11895406	    -15.62268972	     11.12318959	     24.51744914	     89.79537241	      0.51302128	    -11.96614828	     22.15324980	     14.05824529	     90.93032862
      2.76666670	     -8.66192632	     -4.45694446	     16.10356304	      0.76385675	      1.02416771	      0.06520698	     15.43003539	     -4.98909482	     -7.70736417	      8.37678672	      0.14620251	    -10.17555821	     -0.05636236	     -7.49999987	     17.77787002	     -6.68865986	     -5.99014460	     10.27338767	      0.17930444	    -13.82185457	     -3.17255383	     -7.49999987	     -5.54139230	      1.24732191	      3.71444165	     -0.19341544	    -15.85409689	     11.24002214	     26.60658988	     88.49716838	      0.64332345	    -12.31824950	     22.16339117	     15.69807158	     89.56230918
      2.78333330	     -8.70048944	     -4.55805830	     16.29832232	      0.76439110	      1.00063377	      0.06509964	     16.80404206	     -5.14076448	     -7.31960342	     11.34359259	      0.19798304	     -8.29961178	     -0.82847885	     -7.49999987	     19.27452877	     -6.80918087	     -4.50705096	     13.47117852	      0.23511642	    -11.17597634	     -4.14498430	     -7.49999987	     -5.58081053	      1.31702333	      3.66239561	      0.62713044	    -16.16093806	     12.38004229	     28.15196187	     87.55584145	      1.33396058	    -12.53993500	     22.66677118	     16.46316574	     88.55766405
      2.80000000	     -8.91287945	     -4.51302718	     16.35939824	      0.75928070	      0.98123944	      0.06730125	     19.23440594	     -5.52427692	     -6.44279578	     15.93798688	      0.27817035	     -4.39562504	     -1.97163233	     -7.49999987	     21.55647113	     -6.72821711	     -3.02760668	     17.96038910	      0.31346792	     -6.35869411	     -5.04016961	     -7.49999987	     -6.29517365	      1.27745899	      3.66742162	      1.53294440	    -16.71065144	     13.72970050	     30.81549900	     87.58909100	      2.00191169	    -13.29017749	     24.49955317	     18.78599048	     89.09624221
      2.81666670	     -9.18986933	     -4.33940217	     16.31403810	      0.75966270	      0.95207379	      0.06783772	     22.68636493	     -6.01069811	     -4.99641630	     22.61072537	      0.39463160	      1.12869800	     -3.45952351	     -7.49999987	     24.50815450	     -6.42284329	     -1.69554352	     24.17913882	      0.42200558	     -0.01320349	     -6.31907075	     -7.49999987	     -7.09543376	      1.01618531	      3.81389145	      2.31170496	    -16.85521259	     13.07835192	     33.57479386	     88.41766363	      3.07526612	    -13.75799435	     24.08726128	     20.64745300	     90.74726521
